<mxfile host="app.diagrams.net" agent="Mozilla/5.0 (Windows NT 10.0; Win64; x64) AppleWebKit/537.36 (KHTML, like Gecko) Chrome/134.0.0.0 Safari/537.36" version="26.2.4">
  <diagram name="Page-1" id="zPq6aSQ0-KYOiNSpGgnk">
    <mxGraphModel dx="1428" dy="777" grid="1" gridSize="10" guides="1" tooltips="1" connect="1" arrows="1" fold="1" page="1" pageScale="1" pageWidth="850" pageHeight="1100" math="0" shadow="0">
      <root>
        <mxCell id="0" />
        <mxCell id="1" parent="0" />
        <mxCell id="rl-9nm2DVMy3Sn1rpTQ9-1" value="" style="rounded=0;whiteSpace=wrap;html=1;" parent="1" vertex="1">
          <mxGeometry x="40" y="160" width="780" height="130" as="geometry" />
        </mxCell>
        <mxCell id="rl-9nm2DVMy3Sn1rpTQ9-2" value="" style="shape=image;verticalLabelPosition=bottom;labelBackgroundColor=default;verticalAlign=top;aspect=fixed;imageAspect=0;image=data:image/png,iVBORw0KGgoAAAANSUhEUgAAANMAAADvCAMAAABfYRE9AAAAzFBMVEX///9iPOQ8KqhVJuLm4vphOuRbMePi3fkwGaXe2fmjntFzVearnO9LPK1RHuJgOeRYLONdNONTI+I5JqcfAKFcMuP7+v6SfOv49v5qR+Wkk+7HvfRmQeWei+04JKfRyPYxG6V5XOfWz/fu6/zBtvOKcuqZhexvTubq5vuxovC2qPHSyvaGbel/ZOi7r/JBMKrDv+Hh3/BdUbQpDaPQzefFuvS3s9tnXLjs6/VuZLunl+6Wj8xHAOFVR7F7csCDe8PJxuSMhcecls6rptX6boYXAAAHbElEQVR4nO3daVsaOxQH8MwgFLUiwkiprUhdu7qUarHWLvr9v9NNEAvMlj0nJzfnTV/cN/ndx8Mz/8yZhOxPSXB11nkJvQTjtdls7byBXoTh2mwmzcbmC+hlGC1qSpLtzqsh9EIM1syUJDu9D9ArMVdzU5J0kwPotZiqfybaVu/WoFdjphYm1lanQbTVsilJdhsfoRdkoFZNSbP79hP0krQrZ6J/gL0v76EXpVkFE/1d7+wPoJelVSWmJGl1z6HXpVOlJtpWrw+hV6Ze5SbWVp+PoNemWlUm1lZ70ItTrGoTbavWMfTylKrORB+XztahF6hQtSb2uHSCr604JpZC0IV7rom2FbZwL2BCF+5FTNjCvZgJV7gXNdFw38QS7sVNeMK9hAlNuJcyIQn3kiYU4V7WhCHcy5v8D/cqJt/DvZrJ73CvaPI63CubZuHez7bSMHkb7rVMLNx7mEL0TPTJ9ge0oFi6ppaHyT6a/l+mNV9+AQd35kw/N73Y3rxpX5gzNXzYh/m2NelvGTTB78NMb7NRmpo1sX0YwO3NByYybwLch7kct9PUiglqH+bqfpKm1kwQ+zDDX09/dvZMbB/G6fbmRjZOU8um2T6Ms7a67LfT1IHJ3T7M1desnzoy0f/SsL8PM/y91EgOTA72YR5XGsmFyfY+zJ+LSVFk3WRzH+bqe76RXJnY9qaNFDL4W2wkdya2D2O8rR4nJY3k0MTayuyQBU0UlSJXJtZW5raXaKIobyTHJjZkcW2GdFfZSM5NbMjCQLi/abfrRU5NsyELzQ+TWDTnkdyadGeXpr94f3YQJhrut5XD/YOQCMDEwr3SW4PLEbeRwExqs0tL0dxLk3y4H4o1EqhJMtxvlCUK70ysrUSHLC5T0UaCNs32zARSSDGa+2xibcUL94OSaO63iRvu6xJFnekM0FQ/u1QRzQVM+51tQFP1ntm0KpoLmMiLdw2tEQlNU3m4r4nmIiZC3mx3IU0lbaXWSMsmQl52dgBN+XAvlCi4JjJ9pdpWRkyzcD9vK140FzYRsn6m1laGTEnSmafgB7VfuzITIdetFqSpMTdtSD4K1ZoI2VNoK99N5OhzT7atvDcRcvi6K9dWCEyEnHel2gqFiQz2ZdoKh4mQ91/E2wqLiZBPb0XbCo+JkI+N3eBMZHgq9LiEykSXKZJCkJkIOUi4KQSdiZAPPc7vOkITGXJSCEYTDfebdW2F00TD/U714xJWEw33lW2F10SmJxVthdhUGe5Rmwg5Lgv3yE2l4R69qSTc4zcVw30Ipny4D8O0Gu4DMVHAItwHY1oK9wGZ/oX7oEzzcB+W6Snch2aiKaTZCc5EU8heeKbniqZoAjP1wjNNWxpDFgZN/ezWmKluH8ahqd2/NEjSGbIwZRpnD0ZFrNZrtzdtm0bZLytfBl/XbG9aNk3ur2yIWP1QnF3SNLXHN7ZEtI5OpIcstE0jC420Wocqs0saplF2a+XWndVhyWO5IQstU3+y9c2GiI1rrn5eJz27pGpqt6010lon99Wq7OySmmmU3dn7BJ0+w+YHW+Vml1RMfUuNtDAVjwY/FxyyUDPZa6Ql0+xo8JX/cRKzS9Km8eTRqmiRn3Zy934Jzy5JmkbZX+tnOSwyYf5o8AOx2SUpUz/7bu1BqMxUPBpcaHZJxjS5+GNflMvu+c/rRGaXxE3jzHYjlZmKR1LxZ5dETaPst6tTNAt7LPl7vw6a9eFezNTPvjpopCpT8Uiq+tklIVM7NRvNZU3FI6lqZ5cETONsw6Goan8v/9VqzewS12Qrmsuail+tVs4u8UwWo7mkqeTzuooPk+pN7ZHLRuKZip/XTUvDfZ3JfjSXNRWPBi+bXao20UaCuRC3/h1A4fO64uxSlak/ubebKKqL916jcCRVPtxXmCxGc27x39Xk7/3KhftSE43mAJbnEnn/lD8afCXcl5gsR3NuCb1TK4b7xZ5ZwWQ9mnNL8D3hdq8q3OdN4wlcI81L+N1n/uyc53C/anIRzbkl8T43H+6fZpeWTW6iObdk3lGXhvslk6Nozi259+75cD847fSeTZn1PS7Rkp0lKIT750P6HpxFc27Jz0fkw/1g5R8fSmHmw/t7v5TmWDy/90txNsfre79U5418vvdLfYbK33u/dObCfL33S2/Wzc97vzTn92hbgUal0tKeSez5d+mS/pxlNLmoaIomqIqmaIKqaIomqIqmaIKqaIomqIqmaIKqaIomqIqmaIKqaIomqIqmaIKqaIomqFrrhGeSO3Efh2k22KpzQZGXJuGvVlGZxE/cx2QSPXEflUn93i+fTar3fvltUjuSyneTypFU3psUjqRCYJI+kgqFSfJIKiQmqSOpsJjYkVSij0t4TOJHUmEyiaYQVCbBs3OQmYTu/UJnEkghCE3s87raP0CMJt7ZOThN9fd+YTXVnZ2D11R9dg5iU+XZOahNFWfnIDeVnp2D3lRy7xd+U/HsnBBM+bNzwjCtnp0Timn57JxgTEtn5wRkYmfn7AZnmqeQsEyze7+aoZnYK8afwZloCjFm+g9ebN2zFG6G0gAAAABJRU5ErkJggg==;" parent="1" vertex="1">
          <mxGeometry x="65.32" y="180" width="70.63" height="80" as="geometry" />
        </mxCell>
        <mxCell id="rl-9nm2DVMy3Sn1rpTQ9-3" value="IAC" style="text;html=1;align=center;verticalAlign=middle;resizable=0;points=[];autosize=1;strokeColor=none;fillColor=none;" parent="1" vertex="1">
          <mxGeometry x="80.63999999999999" y="255" width="40" height="30" as="geometry" />
        </mxCell>
        <mxCell id="rl-9nm2DVMy3Sn1rpTQ9-5" value="Amazon EKS" style="sketch=0;outlineConnect=0;fontColor=#232F3E;gradientColor=none;strokeColor=#ffffff;fillColor=#232F3E;dashed=0;verticalLabelPosition=middle;verticalAlign=bottom;align=center;html=1;whiteSpace=wrap;fontSize=10;fontStyle=1;spacing=3;shape=mxgraph.aws4.productIcon;prIcon=mxgraph.aws4.eks;" parent="1" vertex="1">
          <mxGeometry x="910" y="300" width="80" height="100" as="geometry" />
        </mxCell>
        <mxCell id="rl-9nm2DVMy3Sn1rpTQ9-10" value="" style="rounded=0;whiteSpace=wrap;html=1;" parent="1" vertex="1">
          <mxGeometry x="40" y="380" width="660" height="190" as="geometry" />
        </mxCell>
        <mxCell id="rl-9nm2DVMy3Sn1rpTQ9-11" value="" style="endArrow=classic;html=1;rounded=0;exitX=0.998;exitY=0.446;exitDx=0;exitDy=0;exitPerimeter=0;" parent="1" source="rl-9nm2DVMy3Sn1rpTQ9-1" target="rl-9nm2DVMy3Sn1rpTQ9-5" edge="1">
          <mxGeometry width="50" height="50" relative="1" as="geometry">
            <mxPoint x="630" y="235" as="sourcePoint" />
            <mxPoint x="770" y="310" as="targetPoint" />
            <Array as="points">
              <mxPoint x="950" y="218" />
            </Array>
          </mxGeometry>
        </mxCell>
        <mxCell id="rl-9nm2DVMy3Sn1rpTQ9-12" value="" style="edgeStyle=orthogonalEdgeStyle;rounded=0;orthogonalLoop=1;jettySize=auto;html=1;" parent="1" source="rl-9nm2DVMy3Sn1rpTQ9-13" target="rl-9nm2DVMy3Sn1rpTQ9-22" edge="1">
          <mxGeometry relative="1" as="geometry">
            <Array as="points">
              <mxPoint x="180" y="440" />
              <mxPoint x="180" y="440" />
            </Array>
          </mxGeometry>
        </mxCell>
        <mxCell id="rl-9nm2DVMy3Sn1rpTQ9-13" value="" style="rounded=0;whiteSpace=wrap;html=1;" parent="1" vertex="1">
          <mxGeometry x="45.31999999999999" y="415.36" width="120" height="60" as="geometry" />
        </mxCell>
        <mxCell id="rl-9nm2DVMy3Sn1rpTQ9-14" value="Microservices&lt;div&gt;Demo (Application)&lt;/div&gt;" style="text;html=1;align=center;verticalAlign=middle;resizable=0;points=[];autosize=1;strokeColor=none;fillColor=none;" parent="1" vertex="1">
          <mxGeometry x="40.31999999999999" y="430" width="130" height="40" as="geometry" />
        </mxCell>
        <mxCell id="rl-9nm2DVMy3Sn1rpTQ9-15" value="" style="shape=image;html=1;verticalAlign=top;verticalLabelPosition=bottom;labelBackgroundColor=#ffffff;imageAspect=0;aspect=fixed;image=https://cdn4.iconfinder.com/data/icons/socialcones/508/Gitlab-128.png" parent="1" vertex="1">
          <mxGeometry x="329.65" y="415.01" width="64.99" height="64.99" as="geometry" />
        </mxCell>
        <mxCell id="rl-9nm2DVMy3Sn1rpTQ9-16" value="Build" style="text;html=1;align=center;verticalAlign=middle;resizable=0;points=[];autosize=1;strokeColor=none;fillColor=none;" parent="1" vertex="1">
          <mxGeometry x="219.83000000000004" y="455.36" width="50" height="30" as="geometry" />
        </mxCell>
        <mxCell id="rl-9nm2DVMy3Sn1rpTQ9-17" value="" style="edgeStyle=orthogonalEdgeStyle;rounded=0;orthogonalLoop=1;jettySize=auto;html=1;" parent="1" source="rl-9nm2DVMy3Sn1rpTQ9-22" target="rl-9nm2DVMy3Sn1rpTQ9-15" edge="1">
          <mxGeometry relative="1" as="geometry">
            <Array as="points">
              <mxPoint x="300" y="440" />
              <mxPoint x="300" y="440" />
            </Array>
          </mxGeometry>
        </mxCell>
        <mxCell id="rl-9nm2DVMy3Sn1rpTQ9-18" value="Push" style="text;html=1;align=center;verticalAlign=middle;resizable=0;points=[];autosize=1;strokeColor=none;fillColor=none;" parent="1" vertex="1">
          <mxGeometry x="334.82" y="455.36" width="50" height="30" as="geometry" />
        </mxCell>
        <mxCell id="rl-9nm2DVMy3Sn1rpTQ9-19" value="" style="shape=image;verticalLabelPosition=bottom;labelBackgroundColor=default;verticalAlign=top;aspect=fixed;imageAspect=0;image=data:image/png,iVBORw0KGgoAAAANSUhEUgAAAOEAAADhCAMAAAAJbSJIAAABF1BMVEX////iQyn8bSb8oyYAAADiPiP97ObmZVL2ZCb8bSX8pCZMTEz8aiXKysr+/f3iQSfi4uLe3t6BgYGioqL29vbDw8NtbW05OTno6OiXl5d2dnbZ2dmxsbFYWFiMjIzv7+9CQkKsrKwvLy9hYWH8mCa4uLifn5/8iiYlJSX8dib8myb7nxZHR0cMDAzR0dEfHx/wWibgMxPfKADyp5j93Ln8gCb+8ePqUCf9yY3+9+78eyb52dLuk4Lpcl74zsXlW0TkTjP+6dT7rEz9z578uWn8iCb92K/8qTz1uKvtgm/749zvnI71wbjpZ03lUDL2vbHtiXj5kkjtaEf6p3H9uGD9xYP8rUT8v3b7lwDwVRf7qlf+6Nb7xqrv2aEPAAAO6klEQVR4nO1daXvaxhaWzOAYDCN2BGLHYGIZvC/UaWLHiR0nTpO2cZre3v//O+45IwntYJCKIHfeD4kthtF55+xHyhNB4ODg4ODg4ODg4ODg4ODg4ODg4ODg4ODg4ODg4ODgcIHS0DYKayeOOXH1+fMJKCDwPvTrm183Q5AndGy+OIofXQXfh344jh+/KgTfKGzQx2tJPDoJvtH4IS7GX3wMvlHYoJ/ikhgPwbyu4KQk6cvqBZvNX+OiKF2/DroP/RCX4KherR7DK1ESRTDTYJJRCkYKG8XfrFqsocKrI2QY/xxUsitUIRzVYwhROVz8BkYK/hMPZqZUODkSEUcPIckVGq6OmWBS/FXAs38R1zcahyRZWHilHb0Yvw4iGRU+6vuIR19Cky0UbOpHL0oBk/4Hg2H862ol/dfXknH2gaIppnud4WolffpJMhgGS/pXbwyG0vUjXaFwCuneYCi9CWCm9INo7CPGP60OP6y0JkcvxT8svk/hlXlSYVSA4eHkaHL0gcx0c3JScFRhNCohgQqfJ4KhaItKRoVHy0mJR0FTa4gYH0lWyU4WlIwKDxaGUvy3kMUMgJMj0YLFJds8lqwbHQduVMIC/TVuFUw8WjSTfTm277MyLdTVtWSXbMFoSr/aTyr+YkWiKT2J2xnGHxaT7OqNfR9I+iGLuiA2H+xHv2jSp19EB8NVSfpmpWVIJn5YRDJI9/Z9Qhn7hAGnkS7aF3x84WQYwtgnDDgjKVrX9SJn/1pynpQUXzS1hopN0SkYNInzhwg6aaKtDD//CwLPK5fweOwUDB1ogbOPu6xdlI5XoUn86jp6VOL8Zvr62G0MoQzRg2LTGUkZjuefsriNlBlD1H5IzcGK3YEe5h1IfXzjCjS4kRh5NB07070u2dxJ//HagyBG06iV+PHaHR/EBZI+e7ATijGEjQ+egoFkcyb9TVe61zeKPOk/eDMU45/ni/OPv3nvg0k/UlgGKw7JpPmSvreRiiyaRvrigm2wYmN49DBP0qeeOUdTYqTVN/VMYrpk82x05XdSC6XWELHpqrotks0TIk58T0o8+vqvif8MPHoUWroKpXmeAI6nnFSgIXpQ0E9HQMUH8TdXm88FpHt/BBmiB8X4961p+OPFc/HHtG1Sf0aX9E9/nKUSG35IHMafiy3/XTZSu8mbyBj+pcZepvxl2/Kqpb087WLKJhtnMfU2qk6f3seSOxv+WkxdPIugKB3620Hq5V5M/RYNPzBSNRaL7fpTTBw+j6C4NYXgDtwjeR4NQXqJDGO7/krc8k0mdvgTBCeEW6in0TA8/8YYgiv6KvF5Krzw/X7qDAnG1Kdo/PA0pmHv5YaPiM80Uz8jBYLsBsnY20jMlN6qOsWdhI8WE2Cms+xUEiWfSKo7IUMEZkqF8TuDIbqijxZnR1NJuvAjmJoQVC+jMNObCcFY0i/xJw5nhhpJ8k73cGYsymi4j8JML02Gsb1fvCkmZkdTv3SfSJyZ+0cTTe8tDH1dMXUxgyEYqffZYKq3MHy3fII3PywCQG2T8qT4jGjqaaRwYFaCcIPlV99WI0UJ3nsrcYaZwoeeRppKWJwwGjMdf7Mz9HPFGWbqk+4Tiff23SOIpjf3DhF8KEI0nU7x0OtLqTPn7pj0l8qR3rpEiHm2GYnpLRTkCndB5IgyOpZspuO/VJcISc/EP6OF8kj3idTGTtK1u3q7XDN1GynivVdpMzXpexipPdWbDN8uN5qeulUY83bFabUpfODOFYmUM8roWG5Zc+fJMLbn4YpTo6k7koITehNUl8vQW4fgiu7aZmo0BRUmnAQ9nDACHZ6/9aaIruig6B9N4boz3cMB7XhvrD4t1w/pacyHorvNSPmq0F2TJlK7PgS/L32k6KtF13wx4ZsvXJHUGFu48S6CqfD40lOYpKvN8HVE15AtkfrFI9XHkur9bSRj7/Gd6qlGVw2+5aNB0dEaYqr3sdConpGee1Q2Wm1jp3jh3WA4JsGJRMo7jF5G+LLC+NbTaRyJ32+W4ZhfeDuhGsUUyoq77x5q3LHPFxM+Zmo3Um8nVL9F91hGx/mlF0V7tElceMQaSbRFUs+GQk2yEBPhmwr4lgS9vXdztLcZXgMp7O6tSyyzQw1JVOBptPwM3LhTY9LuiinRI9ZY0z1EGXdDob6L6ImMG/TJpca9X2xKdJspGKktjrq6evX7bdS8LBifutS4Y31g446mki3de0QZ9V3kIcYEOsrYRdHmih5NoiWSghM6CKo//oo4xLjhCjg4X5xQTDmTvmRJ91DLOGeHbyNOgp6gLks9syjx0EnQNNKEa3a4UhZqxfmTneKO2Wa4mkTr4wrH7FBVo06CU3BnG1DZXmOwm6lkNk6uscXyO8F5cPPO7oobhqE6HmCYRopdvdUJk0//RE1iOs4vf1hN1ez4HZ2+ZDC3d/Wqehf1W89TwVzHHnAmtU3CaqZmTZpIvbdocIWqmGmwdY17Rg0OZmrRotE42Z0wGWUn+Fyw7H+ZNDnuGg8WtyQLRT2SWl9GgDLtbjXjpxduzGdvk6cZlqRvpHvb7FB9Yha6BiSZiOMnd7QxB1J6JLVGGTWGT17WgN4E47tJEben1+BmkyhdbOn19oTgSpZpM3D+zbBTvc0wn7NpRmo2FGpsyQPtEMACzq2RB3bZ2MbSQmEkhXJ0xwgxp6tbpk0FPTUGqmcs2kBtKmlV94a1q1fvV7yK8QXF1GhN/AktX7C3E7Ch0N47jGieHRbGd1pqZG3GpDaFgiaROtvTQ8waWqcV9EYbqKIr4txU0l5GNFL9j/Uo06ZjfGnUNuxVRYm956U3FPd3UUsXGGiB9O6tmkzGzoxOn9Wk7yfj0J8B9Obbj1gSEr/27xMuUvhGUDL24+l8zV3Qist7lvhZ0j/EWiYZ+/6zKFADG1PtpjYwmm5tQKpf2WHTYkBjPH+nQuLHaJpK7arq5ZpWMVNxeq+epTCS7uqPzH4ugsjm5u3Oywvx8EybVfxc/HScP+38LaVi612mTQc9/f3v//wEVYwPmFn+89+flyAHBwcHBwcHBwcHBwcHB8daQ8mlpy9oN3Kr9f+tPAvZxpAMuz2UnBAiCAUlK8PPlf2W4lrbIiSzdAGDIn9AGLpUEMpkIAhFQqpwvUSIW6Hba8gQ+JCKMhoQ0gD1ZZqCkJ7OEPS7VoZa2CekCH83B6STEYZDIuSGhAwPKjaGbbhGSk3GsNfCM1mfIXhvSOoguUB7lX6G+WGV2WzDyjBPSOeAaRYYdgijGKXQc6HNrNMAMmzCpZLctDCUO2Q7q+yTsoIMW4rcI2Qwikbe+QHqyUOWqLdarbqixVJXpGn22kU5WyIHRWRYgysVQtpRSj0PNB2m0c8GaR+GgtyvY8DVGCrat/oRCj0XamCSBUGuNPZJZ+TDUK6D91VbOsOssF4MM2UtlmY6VoYlgTEs4v9nTJEPBJaqzhDNM6cZ63qgAdZXKxZRTTpDyIflTAEZlho5QA/0XM32BjrDVjqTH8KKqAV/NmgZPQxIkQPdD5vwZ6eGDDWURkMtW5CeANmTDPEb66NCQBsC6XZ7VCopQr1bhwv57Va5J1TqXYZ6RShut1qNdr1bFHLderFe3u8WoxZ6TmQy9jqskJGp40LT/IVaf+Hg4ODg4ODg4FgIhUw2K88zDJO7nWf0CU2ZYcrGSmt/KTO4URX7hKp/Zdys5Xs2SfSGdwYqnXK53NovtX1r0px9stFu52fvugB6+nh36Dudz3bItk1KRWuBZyBn9FJdvxVFNkqdgDVi4SND2EFWoEPFu8lKcZTBLkHOZmhmhD8XisBwxD7MphU0T2gkmkIzmy3ISjqrcc8oaQWX4NVmOqMzrBR70C6zOY2xAJeMRjKsa6Idg20U4HfoVAoyrJRlKmezVE6j4wjYlMBvARlWtdkgrWKLWshjqzpogNR10qmgZvtCnymiXhDYh8Maa+kbeLmPY9AuStIYEGzlWf9fqZOczhDnh/vYBpsLBAX75P0u3q6BHzVZ31zFMSy2ys06XOwQEGcfpBh1tIMPgOa+NigS5HRaxpEf2R4yu6oT0CoyyLTZRLtLcZi/TbCvB4Y5XHtAQBykA2wH8FFZQaE7upfqDMt4A3NBE34f4NfAchpIE5aV9lHdeAaD/SYuY8d0UGRTr8ZU+WfDdkgFuAeYzQBFqzM5czghy5RRg0L1oNzEW+YnDIlm5EL6ANcWh3AVhB5WNMOF7+b6lW0yrFoX5NiRyB2DYWGfdLKFajdn+CEeYq2gzeYKVRxYBkN6QFoThvrIrI+DsjpzH3aGSpmN8ZVRrder4o0NhqgqFAukqdZqlQEEpIa2hc6QIUctCwod9iiKNiY6hBttt9lDuQlDVBvctFuAg6gHdUPQ4WDCsKLNNNmTpDqTpIdcdIZCtYWuYmHY18WqGFFzKDfM5xPAcLsLdg6501zQ1ANmfsJwhNc7eIMJQxaoS7DbiI3Xg4HW9SkuCNFjfHTFgR84GMLKbi1nZVjTGYLSSxVAo19omDM1zQ/z6NXmAjpgGcKiQ4Hmu3ARcv+EIQvFwA4tJihBFvy2wRCyZXAHiNcduNTVjGfCED6DfAh/tgrIvuJiyJxTaFYaPcHOEM6OgltZF5SYEeJUWWMot/OKUDTH5+YT1SEpDZ5TWcwCxUxQqbSY/4CT5IpaCLEwBHGGbRny/kEenwS6GcKCTjtdQvW6GDoXgGqGpVyLGNlCOSCdntIi5SyubGdMhhWI5iSM51UyC93kACsPeZv9DEGdbht+WGXTelJHebRUQA2GbZ2AgM+D2RNEoWEWYlWNYRf9ylwgsMel9ZLOsI1RSPNudpsWPn/VGMqYtkKZQjZ7uVKur5VhzVquVG3jHXp5rCez+Tx8kKlUS20oB6qlfLqWL1K5n08Lo3weI2A/j7FAyedKYIIQpbSriGK+jzFsxLaYLMgq7Vq7nUG31xcXYXf2URN+yNNevq/RKuRCiDM6aMEsrAsFr3K/UKDsz2l7zLwJ+6txgBlOLqPjmbvbbmP8Ul+nRx0mFDT1FplZqyhg3aGpcKmgzA9JpzEjk0P1McwtR6TQISu9mjKznC5klcz6vL3BwcHBwcHBwcHBwcHBwcHBwfF/gP8BKTyS++uGynAAAAAASUVORK5CYII=;" parent="1" vertex="1">
          <mxGeometry x="439.99999999999994" y="455.36" width="98.93" height="98.93" as="geometry" />
        </mxCell>
        <mxCell id="rl-9nm2DVMy3Sn1rpTQ9-20" value="" style="shape=image;html=1;verticalAlign=top;verticalLabelPosition=bottom;labelBackgroundColor=#ffffff;imageAspect=0;aspect=fixed;image=https://cdn4.iconfinder.com/data/icons/socialcones/508/Gitlab-128.png" parent="1" vertex="1">
          <mxGeometry x="574.37" y="405.36" width="80" height="80" as="geometry" />
        </mxCell>
        <mxCell id="rl-9nm2DVMy3Sn1rpTQ9-21" value="Update Image tags&amp;nbsp;&lt;div&gt;in manifest file&lt;/div&gt;" style="text;html=1;align=center;verticalAlign=middle;resizable=0;points=[];autosize=1;strokeColor=none;fillColor=none;" parent="1" vertex="1">
          <mxGeometry x="549.37" y="380" width="130" height="40" as="geometry" />
        </mxCell>
        <mxCell id="rl-9nm2DVMy3Sn1rpTQ9-22" value="" style="shape=image;html=1;verticalAlign=top;verticalLabelPosition=bottom;labelBackgroundColor=#ffffff;imageAspect=0;aspect=fixed;image=https://cdn4.iconfinder.com/data/icons/socialcones/508/Gitlab-128.png" parent="1" vertex="1">
          <mxGeometry x="209.64999999999998" y="415.35999999999996" width="70.35" height="70.35" as="geometry" />
        </mxCell>
        <mxCell id="rl-9nm2DVMy3Sn1rpTQ9-23" value="" style="endArrow=classic;html=1;rounded=0;" parent="1" source="rl-9nm2DVMy3Sn1rpTQ9-19" edge="1">
          <mxGeometry width="50" height="50" relative="1" as="geometry">
            <mxPoint x="390" y="520" as="sourcePoint" />
            <mxPoint x="440" y="470" as="targetPoint" />
          </mxGeometry>
        </mxCell>
        <mxCell id="rl-9nm2DVMy3Sn1rpTQ9-24" value="" style="endArrow=classic;html=1;rounded=0;entryX=0;entryY=0.5;entryDx=0;entryDy=0;exitX=0.424;exitY=0.821;exitDx=0;exitDy=0;exitPerimeter=0;" parent="1" source="rl-9nm2DVMy3Sn1rpTQ9-18" edge="1">
          <mxGeometry width="50" height="50" relative="1" as="geometry">
            <mxPoint x="355.81999999999994" y="492.5000000000001" as="sourcePoint" />
            <mxPoint x="440" y="511.96500000000003" as="targetPoint" />
            <Array as="points">
              <mxPoint x="356" y="512" />
            </Array>
          </mxGeometry>
        </mxCell>
        <mxCell id="rl-9nm2DVMy3Sn1rpTQ9-25" value="" style="endArrow=classic;html=1;rounded=0;entryX=0.5;entryY=1;entryDx=0;entryDy=0;exitX=1.021;exitY=0.653;exitDx=0;exitDy=0;exitPerimeter=0;" parent="1" source="rl-9nm2DVMy3Sn1rpTQ9-19" target="rl-9nm2DVMy3Sn1rpTQ9-20" edge="1">
          <mxGeometry width="50" height="50" relative="1" as="geometry">
            <mxPoint x="545" y="495" as="sourcePoint" />
            <mxPoint x="619.9999999999999" y="470.0000000000001" as="targetPoint" />
            <Array as="points">
              <mxPoint x="614" y="520" />
            </Array>
          </mxGeometry>
        </mxCell>
        <mxCell id="rl-9nm2DVMy3Sn1rpTQ9-27" value="" style="endArrow=classic;html=1;rounded=0;exitX=1.005;exitY=0.537;exitDx=0;exitDy=0;exitPerimeter=0;" parent="1" source="rl-9nm2DVMy3Sn1rpTQ9-10" target="rl-9nm2DVMy3Sn1rpTQ9-5" edge="1">
          <mxGeometry width="50" height="50" relative="1" as="geometry">
            <mxPoint x="880.25" y="479.625" as="sourcePoint" />
            <mxPoint x="960" y="440" as="targetPoint" />
            <Array as="points">
              <mxPoint x="950" y="480" />
            </Array>
          </mxGeometry>
        </mxCell>
        <mxCell id="rl-9nm2DVMy3Sn1rpTQ9-29" value="&lt;font style=&quot;font-size: 18px;&quot;&gt;&amp;nbsp;Micoservices&lt;/font&gt;" style="text;html=1;align=center;verticalAlign=middle;resizable=0;points=[];autosize=1;strokeColor=none;fillColor=none;" parent="1" vertex="1">
          <mxGeometry x="410" y="30" width="130" height="40" as="geometry" />
        </mxCell>
        <mxCell id="rl-9nm2DVMy3Sn1rpTQ9-30" value="Build" style="text;html=1;align=center;verticalAlign=middle;resizable=0;points=[];autosize=1;strokeColor=none;fillColor=none;" parent="1" vertex="1">
          <mxGeometry x="219.83" y="485.36" width="50" height="30" as="geometry" />
        </mxCell>
        <mxCell id="rl-9nm2DVMy3Sn1rpTQ9-31" value="Pipeline 1" style="text;html=1;align=center;verticalAlign=middle;resizable=0;points=[];autosize=1;strokeColor=#6c8ebf;fillColor=#dae8fc;" parent="1" vertex="1">
          <mxGeometry x="410" y="130" width="80" height="30" as="geometry" />
        </mxCell>
        <mxCell id="rl-9nm2DVMy3Sn1rpTQ9-32" value="Pipeline 2" style="text;html=1;align=center;verticalAlign=middle;resizable=0;points=[];autosize=1;strokeColor=#6c8ebf;fillColor=#dae8fc;" parent="1" vertex="1">
          <mxGeometry x="410" y="350" width="80" height="30" as="geometry" />
        </mxCell>
        <mxCell id="GUtz81Sb7qLRnSX0zPMH-13" value="" style="edgeStyle=orthogonalEdgeStyle;rounded=0;orthogonalLoop=1;jettySize=auto;html=1;entryX=0.025;entryY=0.525;entryDx=0;entryDy=0;entryPerimeter=0;" parent="1" source="GUtz81Sb7qLRnSX0zPMH-1" target="GUtz81Sb7qLRnSX0zPMH-6" edge="1">
          <mxGeometry relative="1" as="geometry">
            <Array as="points">
              <mxPoint x="300" y="226" />
              <mxPoint x="300" y="226" />
            </Array>
          </mxGeometry>
        </mxCell>
        <mxCell id="GUtz81Sb7qLRnSX0zPMH-1" value="" style="whiteSpace=wrap;html=1;aspect=fixed;" parent="1" vertex="1">
          <mxGeometry x="199.65" y="190" width="70" height="70" as="geometry" />
        </mxCell>
        <mxCell id="GUtz81Sb7qLRnSX0zPMH-14" value="" style="edgeStyle=orthogonalEdgeStyle;rounded=0;orthogonalLoop=1;jettySize=auto;html=1;entryX=-0.014;entryY=0.615;entryDx=0;entryDy=0;entryPerimeter=0;" parent="1" source="GUtz81Sb7qLRnSX0zPMH-2" target="GUtz81Sb7qLRnSX0zPMH-3" edge="1">
          <mxGeometry relative="1" as="geometry">
            <Array as="points">
              <mxPoint x="430" y="230" />
              <mxPoint x="430" y="230" />
            </Array>
          </mxGeometry>
        </mxCell>
        <mxCell id="GUtz81Sb7qLRnSX0zPMH-2" value="" style="whiteSpace=wrap;html=1;aspect=fixed;" parent="1" vertex="1">
          <mxGeometry x="334.65" y="190" width="70" height="70" as="geometry" />
        </mxCell>
        <mxCell id="GUtz81Sb7qLRnSX0zPMH-20" value="" style="edgeStyle=orthogonalEdgeStyle;rounded=0;orthogonalLoop=1;jettySize=auto;html=1;" parent="1" source="GUtz81Sb7qLRnSX0zPMH-3" target="GUtz81Sb7qLRnSX0zPMH-8" edge="1">
          <mxGeometry relative="1" as="geometry">
            <Array as="points">
              <mxPoint x="570" y="225" />
              <mxPoint x="570" y="225" />
            </Array>
          </mxGeometry>
        </mxCell>
        <mxCell id="GUtz81Sb7qLRnSX0zPMH-3" value="" style="whiteSpace=wrap;html=1;aspect=fixed;" parent="1" vertex="1">
          <mxGeometry x="456.96000000000004" y="190" width="65" height="65" as="geometry" />
        </mxCell>
        <mxCell id="GUtz81Sb7qLRnSX0zPMH-4" value="" style="whiteSpace=wrap;html=1;aspect=fixed;" parent="1" vertex="1">
          <mxGeometry x="565" y="190" width="70" height="70" as="geometry" />
        </mxCell>
        <mxCell id="GUtz81Sb7qLRnSX0zPMH-5" value="TF&lt;div&gt;INIT&lt;/div&gt;" style="text;html=1;align=center;verticalAlign=middle;resizable=0;points=[];autosize=1;strokeColor=none;fillColor=none;" parent="1" vertex="1">
          <mxGeometry x="209.65" y="205" width="50" height="40" as="geometry" />
        </mxCell>
        <mxCell id="GUtz81Sb7qLRnSX0zPMH-6" value="TF&lt;div&gt;VALIDATE&lt;/div&gt;" style="text;html=1;align=center;verticalAlign=middle;resizable=0;points=[];autosize=1;strokeColor=none;fillColor=none;" parent="1" vertex="1">
          <mxGeometry x="329.65" y="205" width="80" height="40" as="geometry" />
        </mxCell>
        <mxCell id="GUtz81Sb7qLRnSX0zPMH-7" value="TF&lt;div&gt;PLAN&lt;/div&gt;" style="text;html=1;align=center;verticalAlign=middle;resizable=0;points=[];autosize=1;strokeColor=none;fillColor=none;" parent="1" vertex="1">
          <mxGeometry x="464.46000000000004" y="205" width="50" height="40" as="geometry" />
        </mxCell>
        <mxCell id="GUtz81Sb7qLRnSX0zPMH-23" value="" style="edgeStyle=orthogonalEdgeStyle;rounded=0;orthogonalLoop=1;jettySize=auto;html=1;" parent="1" source="GUtz81Sb7qLRnSX0zPMH-8" edge="1">
          <mxGeometry relative="1" as="geometry">
            <mxPoint x="700" y="225" as="targetPoint" />
            <Array as="points">
              <mxPoint x="670" y="225" />
              <mxPoint x="670" y="225" />
            </Array>
          </mxGeometry>
        </mxCell>
        <mxCell id="GUtz81Sb7qLRnSX0zPMH-8" value="TF&lt;div&gt;APPLY&lt;/div&gt;" style="text;html=1;align=center;verticalAlign=middle;resizable=0;points=[];autosize=1;strokeColor=none;fillColor=none;" parent="1" vertex="1">
          <mxGeometry x="570" y="205" width="60" height="40" as="geometry" />
        </mxCell>
        <mxCell id="GUtz81Sb7qLRnSX0zPMH-9" value="GitLab Repository" style="text;html=1;align=center;verticalAlign=middle;resizable=0;points=[];autosize=1;strokeColor=none;fillColor=none;" parent="1" vertex="1">
          <mxGeometry x="320" y="270" width="120" height="30" as="geometry" />
        </mxCell>
        <mxCell id="GUtz81Sb7qLRnSX0zPMH-10" value="GitLab Repository" style="text;html=1;align=center;verticalAlign=middle;resizable=0;points=[];autosize=1;strokeColor=none;fillColor=none;" parent="1" vertex="1">
          <mxGeometry x="280" y="550" width="120" height="30" as="geometry" />
        </mxCell>
        <mxCell id="GUtz81Sb7qLRnSX0zPMH-21" value="" style="whiteSpace=wrap;html=1;aspect=fixed;" parent="1" vertex="1">
          <mxGeometry x="700" y="187.5" width="70" height="70" as="geometry" />
        </mxCell>
        <mxCell id="GUtz81Sb7qLRnSX0zPMH-22" value="TF&amp;nbsp;&lt;div&gt;DESTROY&lt;/div&gt;" style="text;html=1;align=center;verticalAlign=middle;resizable=0;points=[];autosize=1;strokeColor=none;fillColor=none;" parent="1" vertex="1">
          <mxGeometry x="695" y="200" width="80" height="40" as="geometry" />
        </mxCell>
      </root>
    </mxGraphModel>
  </diagram>
</mxfile>
